<svg xmlns="http://www.w3.org/2000/svg" viewBox="0 0 520 140" role="img" aria-label="Asteria Bank logo">
  <rect width="520" height="140" rx="28" fill="#ffffff"/>
  <g transform="translate(24 18)"><path d="M52 22 78 35v24c0 20-12 33-26 39C38 92 26 79 26 59V35l26-13Z" fill="none" stroke="#566955" stroke-width="5"/><path d="M38 58h28M42 68h20M43 78h18" stroke="#566955" stroke-width="4" stroke-linecap="round"/><path d="M52 33l5 10 11 1-8 7 2 11-10-6-10 6 2-11-8-7 11-1 5-10Z" fill="#b7842c"/></g>
  <text x="132" y="69" font-family="Georgia, 'Times New Roman', serif" font-size="44" font-weight="700" fill="#202830">Asteria</text>
  <text x="134" y="102" font-family="Inter, Arial, sans-serif" font-size="19" font-weight="700" letter-spacing="5" fill="#566955">BANK</text>
  <path d="M132 112h70M450 112h-55" stroke="#b7842c" stroke-width="3" stroke-linecap="round" opacity=".75"/>
</svg>